<?xml version="1.0" encoding="UTF-8" standalone="no"?>
<svg
   xmlns:dc="http://purl.org/dc/elements/1.1/"
   xmlns:cc="http://creativecommons.org/ns#"
   xmlns:rdf="http://www.w3.org/1999/02/22-rdf-syntax-ns#"
   xmlns:svg="http://www.w3.org/2000/svg"
   xmlns="http://www.w3.org/2000/svg"
   xmlns:sodipodi="http://sodipodi.sourceforge.net/DTD/sodipodi-0.dtd"
   xmlns:inkscape="http://www.inkscape.org/namespaces/inkscape"
   width="135.46666mm"
   height="135.46667mm"
   viewBox="0 0 135.46666 135.46667"
   version="1.1"
   id="svg8"
   inkscape:version="1.0 (4035a4fb49, 2020-05-01)"
   sodipodi:docname="favicon.svg">
  <defs
     id="defs2">
    <rect
       id="rect854"
       height="2.2086768"
       width="1.2112477"
       y="21.016598"
       x="4.6276789" />
    <rect
       id="rect25"
       height="19.465775"
       width="16.441963"
       y="47.663918"
       x="-9.7354164" />
    <rect
       x="17.907059"
       y="35.546848"
       width="34.210499"
       height="36.883194"
       id="rect844" />
    <rect
       x="13.607143"
       y="12.095238"
       width="192.0119"
       height="84.666664"
       id="rect835" />
    <rect
       x="4.6276789"
       y="21.016598"
       width="1.2647338"
       height="2.1819336"
       id="rect864" />
    <rect
       id="rect870"
       height="2.1819336"
       width="1.2647338"
       y="21.016598"
       x="4.6276789" />
    <rect
       x="4.6276789"
       y="21.016598"
       width="1.2647338"
       height="2.1819336"
       id="rect876" />
    <rect
       id="rect882"
       height="2.1819336"
       width="1.2647338"
       y="21.016598"
       x="4.6276789" />
    <rect
       x="4.6276789"
       y="21.016598"
       width="1.2647338"
       height="2.1819336"
       id="rect888" />
    <filter
       height="1.0002235"
       y="-0.00011177199"
       width="1.0003278"
       x="-0.00016388355"
       id="filter962"
       style="color-interpolation-filters:sRGB"
       inkscape:collect="always">
      <feGaussianBlur
         id="feGaussianBlur964"
         stdDeviation="4.975658e-05"
         inkscape:collect="always" />
    </filter>
    <filter
       height="1.0002252"
       y="-0.0001126086"
       width="1.0003351"
       x="-0.00016753351"
       id="filter966"
       style="color-interpolation-filters:sRGB"
       inkscape:collect="always">
      <feGaussianBlur
         id="feGaussianBlur968"
         stdDeviation="4.975658e-05"
         inkscape:collect="always" />
    </filter>
    <filter
       height="1.0003358"
       y="-0.00016790746"
       width="1.0003724"
       x="-0.00018619442"
       id="filter970"
       style="color-interpolation-filters:sRGB"
       inkscape:collect="always">
      <feGaussianBlur
         id="feGaussianBlur972"
         stdDeviation="4.975658e-05"
         inkscape:collect="always" />
    </filter>
    <filter
       height="1.0003358"
       y="-0.00016790746"
       width="1.0005206"
       x="-0.00026028563"
       id="filter974"
       style="color-interpolation-filters:sRGB"
       inkscape:collect="always">
      <feGaussianBlur
         id="feGaussianBlur976"
         stdDeviation="4.975658e-05"
         inkscape:collect="always" />
    </filter>
    <filter
       height="1.0002235"
       y="-0.00011177199"
       width="1.0022124"
       x="-0.0011062139"
       id="filter978"
       style="color-interpolation-filters:sRGB"
       inkscape:collect="always">
      <feGaussianBlur
         id="feGaussianBlur980"
         stdDeviation="4.975658e-05"
         inkscape:collect="always" />
    </filter>
    <filter
       height="1.0003366"
       y="-0.00016828311"
       width="1.0003278"
       x="-0.00016388355"
       id="filter982"
       style="color-interpolation-filters:sRGB"
       inkscape:collect="always">
      <feGaussianBlur
         id="feGaussianBlur984"
         stdDeviation="4.975658e-05"
         inkscape:collect="always" />
    </filter>
  </defs>
  <sodipodi:namedview
     fit-margin-bottom="0"
     fit-margin-right="0"
     fit-margin-left="0"
     fit-margin-top="0"
     id="base"
     pagecolor="#ffffff"
     bordercolor="#666666"
     borderopacity="1.0"
     inkscape:pageopacity="0.0"
     inkscape:pageshadow="2"
     inkscape:zoom="0.51990209"
     inkscape:cx="377.90362"
     inkscape:cy="107.9426"
     inkscape:document-units="px"
     inkscape:current-layer="layer1"
     inkscape:document-rotation="0"
     showgrid="false"
     inkscape:pagecheckerboard="true"
     inkscape:window-width="1366"
     inkscape:window-height="705"
     inkscape:window-x="-8"
     inkscape:window-y="-8"
     inkscape:window-maximized="1"
     showguides="false" />
  <metadata
     id="metadata5">
    <rdf:RDF>
      <cc:Work
         rdf:about="">
        <dc:format>image/svg+xml</dc:format>
        <dc:type
           rdf:resource="http://purl.org/dc/dcmitype/StillImage" />
        <dc:title />
      </cc:Work>
    </rdf:RDF>
  </metadata>
  <g
     transform="translate(14.172127,9.0023958)"
     inkscape:label="Capa 1"
     inkscape:groupmode="layer"
     id="layer1"
     style="display:inline">
    <g
       id="g221">
      <path
         id="rect848"
         style="opacity:0.998;fill:#000000;fill-rule:evenodd;stroke:#000000;stroke-width:0.396875;stroke-linecap:round;stroke-linejoin:round;stroke-opacity:0.995968"
         d="M -13.971544,-8.8060799 H 121.09396 V 126.26796 H -13.971544 Z" />
      <g
         aria-label="C"
         transform="matrix(14.778774,0,0,14.457895,-192.92263,-194.78251)"
         id="text833"
         style="font-style:normal;font-variant:normal;font-weight:normal;font-stretch:normal;font-size:9.525px;line-height:1.25;font-family:'Futurex Variation Alpha';-inkscape-font-specification:'Futurex Variation Alpha';letter-spacing:0px;word-spacing:0px;white-space:pre;shape-inside:url(#rect835);fill:#ffaaaa;fill-opacity:1;stroke:none;stroke-width:0.0634359">
        <path
           d="m 17.922247,19.818361 q -0.62865,0.8763 -1.7145,0.8763 -0.885825,0 -1.524,-0.619125 -0.619125,-0.638175 -0.619125,-1.524 v -4.276725 h 3.743325 v 0.6477 h -3.10515 v 3.629025 q 0,0.62865 0.43815,1.0668 0.43815,0.43815 1.0668,0.43815 0.752475,0 1.20015,-0.619125 l 0.51435,0.381 z"
           style="shape-inside:url(#rect835);fill:#ffaaaa;fill-opacity:1;stroke-width:0.0684116"
           id="path184" />
      </g>
      <g
         aria-label="y"
         transform="matrix(13.05486,0,0,12.771411,16.303086,-266.76183)"
         id="text852"
         style="font-style:normal;font-variant:normal;font-weight:normal;font-stretch:normal;font-size:5.29167px;line-height:0;font-family:'Futurex - AlternateTC';-inkscape-font-specification:'Futurex - AlternateTC';letter-spacing:0px;word-spacing:0px;white-space:pre;shape-inside:url(#rect854);opacity:0.997;fill:#ffa3a3;fill-opacity:1;stroke:none;stroke-width:0.0774454;filter:url(#filter966)">
        <path
           d="m 5.4191156,22.483946 q 0,0.144462 -0.1031875,0.24765 -0.1031875,0.103187 -0.250825,0.103187 -0.1825625,0 -0.2841625,-0.144462 l 0.085725,-0.0635 q 0.073025,0.1016 0.1984375,0.1016 0.1031875,0 0.174625,-0.07144 0.073025,-0.07144 0.073025,-0.173037 v -0.09842 q -0.015875,0.01587 -0.03175,0.02699 -0.014288,0.01111 -0.030163,0.01905 l -0.00159,0.0016 q -0.065087,0.05239 -0.187325,0.05239 -0.149225,0 -0.2524125,-0.103187 -0.1031875,-0.103188 -0.1031875,-0.252413 v -0.3556 h 0.1063625 v 0.3556 q 0,0.0635 0.03175,0.123825 0.03175,0.05874 0.084137,0.09049 0.0635,0.03969 0.1158875,0.03969 h 0.022225 q 0.244475,0 0.244475,-0.295275 v -0.314325 h 0.1063625 v 0.0016 h 0.00159 v 0.708025 z"
           style="font-style:normal;font-variant:normal;font-weight:normal;font-stretch:normal;font-size:1.5875px;line-height:0.75;font-family:'Futurex Variation Alpha';-inkscape-font-specification:'Futurex Variation Alpha';fill:#ffa3a3;fill-opacity:1;stroke-width:0.0876723"
           id="path187" />
      </g>
      <g
         aria-label="b"
         transform="matrix(13.05486,0,0,12.771411,16.282362,-244.29338)"
         id="text862"
         style="font-style:normal;font-variant:normal;font-weight:normal;font-stretch:normal;font-size:5.29167px;line-height:0;font-family:'Futurex - AlternateTC';-inkscape-font-specification:'Futurex - AlternateTC';letter-spacing:0px;word-spacing:0px;white-space:pre;shape-inside:url(#rect864);opacity:0.997;fill:#ffa3a3;fill-opacity:1;stroke:none;stroke-width:0.0774454;filter:url(#filter962)">
        <path
           d="m 5.4286406,22.131521 q 0,0.138112 -0.080962,0.242887 -0.087313,0.111125 -0.2206625,0.111125 h -0.231775 v -0.103187 h 0.24765 q 0.0381,0 0.073025,-0.02064 0.104775,-0.0635 0.104775,-0.230187 0,-0.09525 -0.049212,-0.1651 -0.055563,-0.08096 -0.1444625,-0.08096 H 4.8047531 v 0.600075 h -0.104775 v -1.068387 h 0.104775 v 0.360362 h 0.3222625 q 0.1651,0 0.254,0.1651 0.047625,0.0889 0.047625,0.188913 z"
           style="font-style:normal;font-variant:normal;font-weight:normal;font-stretch:normal;font-size:1.5875px;line-height:0.75;font-family:'Futurex Variation Alpha';-inkscape-font-specification:'Futurex Variation Alpha';fill:#ffa3a3;fill-opacity:1;stroke-width:0.0876723"
           id="path190" />
      </g>
      <g
         aria-label="e"
         transform="matrix(13.05486,0,0,12.771411,16.727941,-230.84713)"
         id="text868"
         style="font-style:normal;font-variant:normal;font-weight:normal;font-stretch:normal;font-size:5.29167px;line-height:0;font-family:'Futurex - AlternateTC';-inkscape-font-specification:'Futurex - AlternateTC';letter-spacing:0px;word-spacing:0px;white-space:pre;shape-inside:url(#rect870);opacity:0.997;fill:#ffa3a3;fill-opacity:1;stroke:none;stroke-width:0.0774454;filter:url(#filter970)">
        <path
           d="m 4.8158656,21.882283 v 0.195263 h 0.2301875 q 0.074612,0 0.130175,-0.06191 0.047625,-0.05398 0.061913,-0.13335 z m 0.5349875,-0.0381 q 0,0.0508 -0.0127,0.09842 -0.011113,0.04763 -0.034925,0.0889 -0.023813,0.04128 -0.058738,0.07461 -0.034925,0.03334 -0.079375,0.05239 -0.055562,0.0254 -0.1190625,0.0254 h -0.225425 q 0.00953,0.04286 0.03175,0.07938 0.023813,0.03651 0.055562,0.06191 0.03175,0.0254 0.071438,0.03969 0.041275,0.01429 0.085725,0.01429 0.1285875,0 0.200025,-0.103188 l 0.084137,0.06509 q -0.1016,0.144462 -0.2841625,0.144462 -0.149225,0 -0.2524125,-0.103187 -0.1031875,-0.103188 -0.1031875,-0.252413 v -0.3556 h 0.6397625 l 0.00159,0.06985 z"
           style="font-style:normal;font-variant:normal;font-weight:normal;font-stretch:normal;font-size:1.5875px;line-height:0.75;font-family:'Futurex Variation Alpha';-inkscape-font-specification:'Futurex Variation Alpha';fill:#ffa3a3;fill-opacity:1;stroke-width:0.0876723"
           id="path193" />
      </g>
      <g
         aria-label="r"
         transform="matrix(13.05486,0,0,12.771411,17.961053,-217.40089)"
         id="text874"
         style="font-style:normal;font-variant:normal;font-weight:normal;font-stretch:normal;font-size:5.29167px;line-height:0;font-family:'Futurex - AlternateTC';-inkscape-font-specification:'Futurex - AlternateTC';letter-spacing:0px;word-spacing:0px;white-space:pre;shape-inside:url(#rect876);opacity:0.997;fill:#ffa3a3;fill-opacity:1;stroke:none;stroke-width:0.0774454;filter:url(#filter974)">
        <path
           d="m 5.0936781,21.915621 q -0.04445,-0.03493 -0.096838,-0.03493 h -0.18415 v 0.604837 H 4.7063281 v -0.7112 h 0.2905125 q 0.0889,0 0.168275,0.06033 z"
           style="font-style:normal;font-variant:normal;font-weight:normal;font-stretch:normal;font-size:1.5875px;line-height:0.75;font-family:'Futurex Variation Alpha';-inkscape-font-specification:'Futurex Variation Alpha';fill:#ffa3a3;fill-opacity:1;stroke-width:0.0876723"
           id="path196" />
      </g>
      <g
         aria-label="i"
         transform="matrix(13.05486,0,0,12.771411,20.33402,-199.41314)"
         id="text880"
         style="font-style:normal;font-variant:normal;font-weight:normal;font-stretch:normal;font-size:5.29167px;line-height:0;font-family:'Futurex - AlternateTC';-inkscape-font-specification:'Futurex - AlternateTC';letter-spacing:0px;word-spacing:0px;white-space:pre;shape-inside:url(#rect882);opacity:0.997;fill:#ffa3a3;fill-opacity:1;stroke:none;stroke-width:0.0774454;filter:url(#filter978)">
        <path
           d="m 4.6999781,22.487121 v -0.7112 h 0.10795 v 0.7112 z m 0,-0.949325 v -0.119063 h 0.10795 v 0.119063 z"
           style="font-style:normal;font-variant:normal;font-weight:normal;font-stretch:normal;font-size:1.5875px;line-height:0.75;font-family:'Futurex Variation Alpha';-inkscape-font-specification:'Futurex Variation Alpha';fill:#ffa3a3;fill-opacity:1;stroke-width:0.0876723"
           id="path199" />
      </g>
      <g
         aria-label="a"
         transform="matrix(13.05486,0,0,12.771411,16.220188,-185.96689)"
         id="text886"
         style="font-style:normal;font-variant:normal;font-weight:normal;font-stretch:normal;font-size:5.29167px;line-height:0;font-family:'Futurex - AlternateTC';-inkscape-font-specification:'Futurex - AlternateTC';letter-spacing:0px;word-spacing:0px;white-space:pre;shape-inside:url(#rect888);opacity:0.997;fill:#ffa3a3;fill-opacity:1;stroke:none;stroke-width:0.0774454;filter:url(#filter982)">
        <path
           d="M 5.3286281,22.485533 V 21.883871 H 5.0063656 q -0.090488,0 -0.1444625,0.08096 -0.049213,0.06985 -0.049213,0.1651 0,0.168275 0.1063625,0.231775 0.030162,0.01905 0.071438,0.01905 h 0.24765 v 0.104775 h -0.231775 q -0.13335,0 -0.22225,-0.112712 -0.079375,-0.106363 -0.079375,-0.242888 0,-0.1016 0.049213,-0.1905 0.049212,-0.09049 0.136525,-0.134937 0.05715,-0.02858 0.1158875,-0.02858 h 0.4270375 v 0.709612 z"
           style="font-style:normal;font-variant:normal;font-weight:normal;font-stretch:normal;font-size:1.5875px;line-height:0.75;font-family:'Futurex Variation Alpha';-inkscape-font-specification:'Futurex Variation Alpha';fill:#ffa3a3;fill-opacity:1;stroke-width:0.0876723"
           id="path202" />
      </g>
    </g>
  </g>
</svg>
